<?xml version="1.0" encoding="UTF-8" standalone="no"?>
<!DOCTYPE svg PUBLIC "-//W3C//DTD SVG 1.1//EN"
 "http://www.w3.org/Graphics/SVG/1.1/DTD/svg11.dtd">
<!-- Generated by graphviz version 2.47.3 (20210619.1520)
 -->
<!-- Title: dependencies Pages: 1 -->
<svg width="729pt" height="174pt"
 viewBox="0.00 0.00 729.00 173.80" xmlns="http://www.w3.org/2000/svg" xmlns:xlink="http://www.w3.org/1999/xlink">
<g id="graph0" class="graph" transform="scale(1 1) rotate(0) translate(4 169.8)">
<title>dependencies</title>
<polygon fill="white" stroke="transparent" points="-4,4 -4,-169.8 725,-169.8 725,4 -4,4"/>
<text text-anchor="middle" x="360.5" y="-8.2" font-family="sans-serif" font-size="14.00">dependencies</text>
<g id="clust1" class="cluster">
<title>cluster_AuthModule</title>
<polygon fill="none" stroke="black" stroke-dasharray="1,5" points="8,-32.8 8,-157.8 713,-157.8 713,-32.8 8,-32.8"/>
</g>
<g id="clust6" class="cluster">
<title>cluster_AuthModule_imports</title>
<polygon fill="none" stroke="black" points="440,-40.8 440,-92.8 705,-92.8 705,-40.8 440,-40.8"/>
</g>
<g id="clust2" class="cluster">
<title>cluster_AuthModule_declarations</title>
<polygon fill="none" stroke="black" points="16,-40.8 16,-92.8 432,-92.8 432,-40.8 16,-40.8"/>
</g>
<!-- SigninComponent -->
<g id="node1" class="node">
<title>SigninComponent</title>
<polygon fill="#ffffb3" stroke="black" points="423.9,-84.8 306.1,-84.8 306.1,-48.8 423.9,-48.8 423.9,-84.8"/>
<text text-anchor="middle" x="365" y="-62.6" font-family="Times,serif" font-size="14.00">SigninComponent</text>
</g>
<!-- AuthModule -->
<g id="node4" class="node">
<title>AuthModule</title>
<polygon fill="#8dd3c7" stroke="black" points="408.55,-149.8 405.55,-153.8 384.55,-153.8 381.55,-149.8 321.45,-149.8 321.45,-113.8 408.55,-113.8 408.55,-149.8"/>
<text text-anchor="middle" x="365" y="-127.6" font-family="Times,serif" font-size="14.00">AuthModule</text>
</g>
<!-- SigninComponent&#45;&gt;AuthModule -->
<g id="edge1" class="edge">
<title>SigninComponent&#45;&gt;AuthModule</title>
<path fill="none" stroke="black" d="M365,-84.91C365,-84.91 365,-103.79 365,-103.79"/>
<polygon fill="black" stroke="black" points="361.5,-103.79 365,-113.79 368.5,-103.79 361.5,-103.79"/>
</g>
<!-- SignoutComponent -->
<g id="node2" class="node">
<title>SignoutComponent</title>
<polygon fill="#ffffb3" stroke="black" points="288.4,-84.8 163.6,-84.8 163.6,-48.8 288.4,-48.8 288.4,-84.8"/>
<text text-anchor="middle" x="226" y="-62.6" font-family="Times,serif" font-size="14.00">SignoutComponent</text>
</g>
<!-- SignoutComponent&#45;&gt;AuthModule -->
<g id="edge2" class="edge">
<title>SignoutComponent&#45;&gt;AuthModule</title>
<path fill="none" stroke="black" d="M226,-84.82C226,-102.17 226,-125.8 226,-125.8 226,-125.8 311.4,-125.8 311.4,-125.8"/>
<polygon fill="black" stroke="black" points="311.4,-129.3 321.4,-125.8 311.4,-122.3 311.4,-129.3"/>
</g>
<!-- SignupComponent -->
<g id="node3" class="node">
<title>SignupComponent</title>
<polygon fill="#ffffb3" stroke="black" points="145.51,-84.8 24.49,-84.8 24.49,-48.8 145.51,-48.8 145.51,-84.8"/>
<text text-anchor="middle" x="85" y="-62.6" font-family="Times,serif" font-size="14.00">SignupComponent</text>
</g>
<!-- SignupComponent&#45;&gt;AuthModule -->
<g id="edge3" class="edge">
<title>SignupComponent&#45;&gt;AuthModule</title>
<path fill="none" stroke="black" d="M85,-85.08C85,-106.12 85,-137.8 85,-137.8 85,-137.8 311.25,-137.8 311.25,-137.8"/>
<polygon fill="black" stroke="black" points="311.25,-141.3 321.25,-137.8 311.25,-134.3 311.25,-141.3"/>
</g>
<!-- AuthRoutingModule -->
<g id="node5" class="node">
<title>AuthRoutingModule</title>
<polygon fill="#8dd3c7" stroke="black" points="697.17,-84.8 694.17,-88.8 673.17,-88.8 670.17,-84.8 564.83,-84.8 564.83,-48.8 697.17,-48.8 697.17,-84.8"/>
<text text-anchor="middle" x="631" y="-62.6" font-family="Times,serif" font-size="14.00">AuthRoutingModule</text>
</g>
<!-- AuthRoutingModule&#45;&gt;AuthModule -->
<g id="edge4" class="edge">
<title>AuthRoutingModule&#45;&gt;AuthModule</title>
<path fill="none" stroke="black" d="M631,-85.08C631,-106.12 631,-137.8 631,-137.8 631,-137.8 418.63,-137.8 418.63,-137.8"/>
<polygon fill="black" stroke="black" points="418.63,-134.3 408.63,-137.8 418.63,-141.3 418.63,-134.3"/>
</g>
<!-- SharedModule -->
<g id="node6" class="node">
<title>SharedModule</title>
<polygon fill="#8dd3c7" stroke="black" points="546.42,-84.8 543.42,-88.8 522.42,-88.8 519.42,-84.8 447.58,-84.8 447.58,-48.8 546.42,-48.8 546.42,-84.8"/>
<text text-anchor="middle" x="497" y="-62.6" font-family="Times,serif" font-size="14.00">SharedModule</text>
</g>
<!-- SharedModule&#45;&gt;AuthModule -->
<g id="edge5" class="edge">
<title>SharedModule&#45;&gt;AuthModule</title>
<path fill="none" stroke="black" d="M497,-84.82C497,-102.17 497,-125.8 497,-125.8 497,-125.8 418.59,-125.8 418.59,-125.8"/>
<polygon fill="black" stroke="black" points="418.59,-122.3 408.59,-125.8 418.59,-129.3 418.59,-122.3"/>
</g>
</g>
</svg>
