<?xml version="1.0" encoding="UTF-8" standalone="no"?>
<!DOCTYPE svg PUBLIC "-//W3C//DTD SVG 1.1//EN"
 "http://www.w3.org/Graphics/SVG/1.1/DTD/svg11.dtd">
<!-- Generated by graphviz version 2.47.3 (20210619.1520)
 -->
<!-- Title: dependencies Pages: 1 -->
<svg width="921pt" height="174pt"
 viewBox="0.00 0.00 921.00 173.80" xmlns="http://www.w3.org/2000/svg" xmlns:xlink="http://www.w3.org/1999/xlink">
<g id="graph0" class="graph" transform="scale(1 1) rotate(0) translate(4 169.8)">
<title>dependencies</title>
<polygon fill="white" stroke="transparent" points="-4,4 -4,-169.8 917,-169.8 917,4 -4,4"/>
<text text-anchor="middle" x="456.5" y="-8.2" font-family="sans-serif" font-size="14.00">dependencies</text>
<g id="clust1" class="cluster">
<title>cluster_ProfileModule</title>
<polygon fill="none" stroke="black" stroke-dasharray="1,5" points="8,-32.8 8,-157.8 905,-157.8 905,-32.8 8,-32.8"/>
</g>
<g id="clust7" class="cluster">
<title>cluster_ProfileModule_imports</title>
<polygon fill="none" stroke="black" points="622,-40.8 622,-92.8 897,-92.8 897,-40.8 622,-40.8"/>
</g>
<g id="clust2" class="cluster">
<title>cluster_ProfileModule_declarations</title>
<polygon fill="none" stroke="black" points="16,-40.8 16,-92.8 614,-92.8 614,-40.8 16,-40.8"/>
</g>
<!-- ModalComponent -->
<g id="node1" class="node">
<title>ModalComponent</title>
<polygon fill="#ffffb3" stroke="black" points="605.88,-84.8 488.12,-84.8 488.12,-48.8 605.88,-48.8 605.88,-84.8"/>
<text text-anchor="middle" x="547" y="-62.6" font-family="Times,serif" font-size="14.00">ModalComponent</text>
</g>
<!-- ProfileModule -->
<g id="node5" class="node">
<title>ProfileModule</title>
<polygon fill="#8dd3c7" stroke="black" points="519.65,-149.8 516.65,-153.8 495.65,-153.8 492.65,-149.8 422.35,-149.8 422.35,-113.8 519.65,-113.8 519.65,-149.8"/>
<text text-anchor="middle" x="471" y="-127.6" font-family="Times,serif" font-size="14.00">ProfileModule</text>
</g>
<!-- ModalComponent&#45;&gt;ProfileModule -->
<g id="edge1" class="edge">
<title>ModalComponent&#45;&gt;ProfileModule</title>
<path fill="none" stroke="black" d="M503.94,-84.91C503.94,-84.91 503.94,-103.79 503.94,-103.79"/>
<polygon fill="black" stroke="black" points="500.44,-103.79 503.94,-113.79 507.44,-103.79 500.44,-103.79"/>
</g>
<!-- ModalFormComponent -->
<g id="node2" class="node">
<title>ModalFormComponent</title>
<polygon fill="#ffffb3" stroke="black" points="470.22,-84.8 321.78,-84.8 321.78,-48.8 470.22,-48.8 470.22,-84.8"/>
<text text-anchor="middle" x="396" y="-62.6" font-family="Times,serif" font-size="14.00">ModalFormComponent</text>
</g>
<!-- ModalFormComponent&#45;&gt;ProfileModule -->
<g id="edge2" class="edge">
<title>ModalFormComponent&#45;&gt;ProfileModule</title>
<path fill="none" stroke="black" d="M446.14,-84.91C446.14,-84.91 446.14,-103.79 446.14,-103.79"/>
<polygon fill="black" stroke="black" points="442.64,-103.79 446.14,-113.79 449.64,-103.79 442.64,-103.79"/>
</g>
<!-- NoteComponent -->
<g id="node3" class="node">
<title>NoteComponent</title>
<polygon fill="#ffffb3" stroke="black" points="304.05,-84.8 195.95,-84.8 195.95,-48.8 304.05,-48.8 304.05,-84.8"/>
<text text-anchor="middle" x="250" y="-62.6" font-family="Times,serif" font-size="14.00">NoteComponent</text>
</g>
<!-- NoteComponent&#45;&gt;ProfileModule -->
<g id="edge3" class="edge">
<title>NoteComponent&#45;&gt;ProfileModule</title>
<path fill="none" stroke="black" d="M250,-84.82C250,-102.17 250,-125.8 250,-125.8 250,-125.8 412.23,-125.8 412.23,-125.8"/>
<polygon fill="black" stroke="black" points="412.23,-129.3 422.23,-125.8 412.23,-122.3 412.23,-129.3"/>
</g>
<!-- ProfileHomeComponent -->
<g id="node4" class="node">
<title>ProfileHomeComponent</title>
<polygon fill="#ffffb3" stroke="black" points="177.64,-84.8 24.36,-84.8 24.36,-48.8 177.64,-48.8 177.64,-84.8"/>
<text text-anchor="middle" x="101" y="-62.6" font-family="Times,serif" font-size="14.00">ProfileHomeComponent</text>
</g>
<!-- ProfileHomeComponent&#45;&gt;ProfileModule -->
<g id="edge4" class="edge">
<title>ProfileHomeComponent&#45;&gt;ProfileModule</title>
<path fill="none" stroke="black" d="M101,-85.08C101,-106.12 101,-137.8 101,-137.8 101,-137.8 412.25,-137.8 412.25,-137.8"/>
<polygon fill="black" stroke="black" points="412.25,-141.3 422.25,-137.8 412.25,-134.3 412.25,-141.3"/>
</g>
<!-- ProfileRoutingModule -->
<g id="node6" class="node">
<title>ProfileRoutingModule</title>
<polygon fill="#8dd3c7" stroke="black" points="889.27,-84.8 886.27,-88.8 865.27,-88.8 862.27,-84.8 746.73,-84.8 746.73,-48.8 889.27,-48.8 889.27,-84.8"/>
<text text-anchor="middle" x="818" y="-62.6" font-family="Times,serif" font-size="14.00">ProfileRoutingModule</text>
</g>
<!-- ProfileRoutingModule&#45;&gt;ProfileModule -->
<g id="edge5" class="edge">
<title>ProfileRoutingModule&#45;&gt;ProfileModule</title>
<path fill="none" stroke="black" d="M818,-85.08C818,-106.12 818,-137.8 818,-137.8 818,-137.8 529.98,-137.8 529.98,-137.8"/>
<polygon fill="black" stroke="black" points="529.98,-134.3 519.98,-137.8 529.98,-141.3 529.98,-134.3"/>
</g>
<!-- SharedModule -->
<g id="node7" class="node">
<title>SharedModule</title>
<polygon fill="#8dd3c7" stroke="black" points="728.42,-84.8 725.42,-88.8 704.42,-88.8 701.42,-84.8 629.58,-84.8 629.58,-48.8 728.42,-48.8 728.42,-84.8"/>
<text text-anchor="middle" x="679" y="-62.6" font-family="Times,serif" font-size="14.00">SharedModule</text>
</g>
<!-- SharedModule&#45;&gt;ProfileModule -->
<g id="edge6" class="edge">
<title>SharedModule&#45;&gt;ProfileModule</title>
<path fill="none" stroke="black" d="M679,-84.82C679,-102.17 679,-125.8 679,-125.8 679,-125.8 529.77,-125.8 529.77,-125.8"/>
<polygon fill="black" stroke="black" points="529.77,-122.3 519.77,-125.8 529.77,-129.3 529.77,-122.3"/>
</g>
</g>
</svg>
